<svg width="34" height="34" viewBox="0 0 34 34" fill="none" xmlns="http://www.w3.org/2000/svg">
<rect width="34" height="34" fill="#E5E5E5"/>
<g id="Arrows">
<g id="Arrows_2">
</g>
</g>
<g id="Home">
<rect width="1920" height="1424" transform="translate(-1258 -1164)" fill="white"/>
<g id="Footer">
<g id="top">
<rect width="1920" height="240" transform="translate(-1258 -104)" fill="#252822"/>
<g id="Redes sociais">
<g id="Icon_Dribble">
<circle id="Ellipse 2" cx="17.5" cy="16.5" r="22.5" fill="#7CB124"/>
<path id="Vector" d="M3.17194 26.87L3.13873 26.9104L3.87474 27.8121C4.07949 28.0629 4.29116 28.3063 4.50629 28.5374C4.61696 28.6564 4.72799 28.7746 4.80823 28.8476L4.87705 28.9158C5.05829 29.097 5.24021 29.2782 5.43355 29.4647C5.593 29.6161 5.75936 29.7614 5.94578 29.9222L6.02083 29.9838C6.07963 30.0277 6.13497 30.0737 6.19169 30.1211L6.29995 30.2103C6.53514 30.4054 6.77032 30.5839 6.97715 30.7274C7.249 30.9315 7.54749 31.1348 7.88505 31.3496L7.84977 31.3638L8.13892 31.508C8.23714 31.5682 8.33433 31.6284 8.44051 31.6917C8.73934 31.865 9.0392 32.0296 9.30414 32.1576C9.40686 32.2115 9.5165 32.2662 9.62614 32.3198L9.82951 32.4184C9.94987 32.473 10.072 32.5197 10.1923 32.5726C10.3113 32.6252 10.431 32.676 10.552 32.7265C10.6015 32.7469 10.6499 32.7698 10.6994 32.7895L10.9899 32.9517H11.1123C11.113 32.9517 11.1144 32.9524 11.1151 32.9524L11.3427 33.0381L11.3503 33.0347C11.417 33.0579 11.4834 33.0828 11.5495 33.1046C11.628 33.1308 11.7089 33.1537 11.7881 33.1793C11.8936 33.2132 11.9991 33.2464 12.1053 33.2782C12.1357 33.2875 12.1655 33.2982 12.1963 33.3065C12.2682 33.3328 12.318 33.3449 12.3256 33.3463C12.4647 33.3875 12.5992 33.4227 12.7275 33.4553C12.7839 33.4701 12.8413 33.4822 12.898 33.4964C12.9143 33.4999 12.935 33.5058 12.9513 33.5092C12.9582 33.5113 12.9655 33.512 12.9724 33.5134C13.4597 33.6323 13.9543 33.733 14.4565 33.8087C14.4918 33.8146 14.5274 33.8222 14.5627 33.8278L14.7505 33.8513C14.8553 33.8641 14.9594 33.8748 15.0642 33.8866C15.1576 33.8973 15.2496 33.9094 15.344 33.918C15.3575 33.9194 15.3717 33.9215 15.3858 33.9229C15.6286 33.9454 15.8687 33.9668 16.0841 33.9744C16.3882 33.991 16.6925 34 17 34C17.2549 34 17.5008 33.9931 17.7388 33.9817C17.8373 33.9775 17.9342 33.9716 18.0321 33.9661C18.2247 33.9554 18.4253 33.9398 18.6356 33.9201C18.6878 33.9149 18.7404 33.9108 18.793 33.9052C18.8324 33.9007 18.8673 33.8987 18.9088 33.8938L19.1662 33.8634C19.3851 33.8385 19.613 33.8046 19.7773 33.7721C19.834 33.7634 19.8907 33.7486 19.9475 33.7392C20.1515 33.7032 20.3552 33.6666 20.5565 33.6234C20.5586 33.6227 20.5614 33.6227 20.5638 33.622C20.7222 33.5912 20.8858 33.5538 21.0338 33.5186C21.102 33.5026 21.1687 33.4829 21.2365 33.4653C21.2407 33.4639 21.2458 33.4632 21.25 33.4618C21.3569 33.4342 21.4641 33.4079 21.5689 33.3788L21.8933 33.2861C21.9483 33.2692 21.9936 33.2529 22.0476 33.2349C22.0496 33.2343 22.051 33.2336 22.0534 33.2329C22.197 33.1876 22.3429 33.1416 22.4661 33.0976L22.7013 33.024C22.9817 32.9219 23.2622 32.813 23.5109 32.7068C23.5427 32.694 23.5742 32.6778 23.6067 32.6643C23.615 32.6605 23.623 32.6563 23.6313 32.6528C23.8765 32.5501 24.1217 32.4412 24.3604 32.3284C24.6409 32.196 24.9127 32.0493 25.1821 31.9027C25.4215 31.773 25.648 31.6377 25.8739 31.5011L26.1374 31.3382C26.3159 31.2213 26.4902 31.1072 26.6645 30.984C26.7417 30.9342 26.8247 30.8786 26.8876 30.8301C27.0505 30.7112 27.2141 30.5908 27.3742 30.467L27.5195 30.3577C27.7398 30.1837 27.9595 30.0014 28.1711 29.8202L28.3717 29.648L28.3814 29.6296C28.5436 29.4837 28.7031 29.3301 28.8687 29.1707C29.0856 28.9625 29.3011 28.7387 29.5114 28.5125C29.7196 28.2887 29.9215 28.0563 30.1149 27.8249L30.8678 26.9208L30.8267 26.8713C32.8213 24.0854 34 20.6783 34 17C34 13.3217 32.8213 9.91454 30.8281 7.12928L30.8692 7.07982L30.1163 6.17607C29.9236 5.94434 29.7209 5.71261 29.5114 5.48607C29.308 5.26852 29.0991 5.05823 28.8597 4.82027C28.701 4.66878 28.5436 4.51695 28.3821 4.37099L28.1718 4.18042C27.9601 3.99919 27.7405 3.81657 27.5202 3.64294L27.3749 3.534C27.2155 3.40983 27.0547 3.29154 26.9025 3.18052C26.8267 3.1238 26.743 3.06708 26.6652 3.01762C26.4909 2.89414 26.3166 2.78035 26.1381 2.66345L25.9043 2.51023L25.8746 2.50055C25.6494 2.36358 25.4222 2.22835 25.1856 2.10003C24.9134 1.952 24.6409 1.80466 24.3611 1.67323C24.0826 1.54146 23.7966 1.41107 23.5365 1.30558C23.2629 1.18798 22.9835 1.07869 22.7019 0.97735L22.4937 0.913018C22.2962 0.842116 22.0988 0.779168 21.8643 0.706882L21.5651 0.621107C21.4081 0.57649 21.2431 0.531873 21.0778 0.493136L20.8817 0.445407C20.7883 0.424309 20.6918 0.402173 20.5998 0.384534L20.4632 0.339917H20.3943C20.2421 0.306023 20.0855 0.27697 19.9305 0.251376L19.8313 0.237195C19.6123 0.195345 19.3844 0.16145 19.2059 0.141736L18.8559 0.099886C18.8241 0.0964274 18.793 0.0943522 18.7608 0.0912394C18.7349 0.0884724 18.7079 0.0863972 18.6816 0.084322C18.4557 0.0628784 18.2327 0.0452391 18.0258 0.0338255C17.9356 0.0282916 17.8449 0.0234495 17.7543 0.0189533C17.2134 -0.00837021 16.6493 -0.00491155 16.1741 0.0213744C16.0247 0.0282916 15.8759 0.0417804 15.7272 0.053194C15.6138 0.0621866 15.5003 0.0666828 15.3879 0.0777505C15.3758 0.0794799 15.363 0.0808633 15.3509 0.0822469C15.2468 0.0919311 15.1441 0.10542 15.0407 0.117525C14.9359 0.129631 14.8318 0.139661 14.727 0.15315L14.5769 0.170097C14.5385 0.175631 14.4984 0.184277 14.46 0.190503C14.0996 0.24515 13.7437 0.31294 13.3912 0.389722L13.3771 0.392489C13.2522 0.415662 13.1353 0.444023 12.9959 0.480339C12.9534 0.489332 12.9122 0.500745 12.8697 0.510776C12.8244 0.522189 12.7791 0.531873 12.7344 0.543287C12.6047 0.575798 12.4802 0.60831 12.374 0.640476C12.3391 0.649468 12.2782 0.665032 12.2018 0.69201L12.1679 0.701348C11.9462 0.761529 11.7321 0.829319 11.5543 0.893996C11.4862 0.916477 11.4198 0.941379 11.3517 0.964898L11.3434 0.961094L11.1002 1.0524C11.0988 1.05344 11.0975 1.05344 11.0961 1.05413L10.9643 1.0569L10.4884 1.29831C10.3891 1.33947 10.2912 1.3834 10.193 1.42663C10.0727 1.47955 9.94987 1.52728 9.8302 1.58089L9.62683 1.67946C9.51719 1.73411 9.40686 1.78772 9.35706 1.81608C9.17651 1.90185 8.99666 1.99593 8.86143 2.07478C8.74522 2.13635 8.62313 2.20275 8.50553 2.27089L8.16728 2.47357C8.16071 2.47703 8.15448 2.48118 8.1486 2.48567L7.85046 2.63647L7.88505 2.64996C7.83075 2.68455 7.77472 2.71775 7.72007 2.75337L7.57792 2.84953L7.57343 2.85402C7.37732 2.98407 7.19159 3.11446 7.04356 3.22514C6.99963 3.25419 6.95571 3.28601 6.88792 3.33616C6.72778 3.44822 6.56972 3.56651 6.41685 3.69759C6.375 3.72941 6.33972 3.75708 6.31136 3.78025L5.97207 4.06075C5.78979 4.21016 5.60649 4.36892 5.4083 4.5588L5.19283 4.7677C5.05483 4.89118 4.92375 5.02122 4.79336 5.1651C4.6934 5.26091 4.60071 5.35983 4.51078 5.45771C4.29047 5.69359 4.07949 5.93708 3.87474 6.18783L3.13873 7.08985L3.17194 7.12997C1.17802 9.91523 0 13.3217 0 17C0 20.6783 1.17802 24.0847 3.17194 26.87V26.87ZM15.5934 2.90486C16.0565 2.85886 16.5255 2.83327 17 2.83327C17.9646 2.83327 18.9068 2.93184 19.8178 3.11653C19.834 3.12034 19.851 3.12241 19.8665 3.12656L20.0326 3.18121H20.0799C22.7991 3.78682 25.2243 5.17167 27.1093 7.09469C25.5363 8.68983 23.596 9.89967 21.4817 10.608L21.4703 10.572L21.4115 10.5904C21.3932 10.5451 21.3697 10.5011 21.3506 10.4558C21.2393 10.1909 21.121 9.92941 20.9965 9.67001C20.9539 9.58147 20.9135 9.49155 20.8689 9.4037C20.699 9.06682 20.5199 8.73445 20.3286 8.40933C20.2996 8.35987 20.2667 8.31214 20.237 8.26338C20.0713 7.98876 19.8977 7.71933 19.7171 7.45439C19.6514 7.35824 19.584 7.26382 19.5162 7.16905C19.3547 6.94251 19.1873 6.72081 19.0154 6.50257C18.9486 6.41818 18.8836 6.3324 18.8154 6.24974C18.5775 5.95921 18.3316 5.67456 18.0753 5.40029C18.0504 5.37401 18.0241 5.34945 17.9989 5.32316C17.7644 5.07587 17.5219 4.83653 17.2743 4.60341C17.1892 4.52352 17.1027 4.44605 17.0156 4.36823C16.8122 4.18492 16.6047 4.00714 16.393 3.83352C16.3045 3.76123 16.2166 3.68756 16.1267 3.61666C15.8355 3.38804 15.5387 3.16565 15.2326 2.95571C15.3219 2.94464 15.4083 2.92458 15.4982 2.91559C15.5301 2.91178 15.5615 2.90763 15.5934 2.90486V2.90486ZM19.8984 30.8664C19.8717 30.8727 19.8434 30.8779 19.8164 30.8841C19.3695 30.9747 18.9161 31.0449 18.4551 31.0923C18.4478 31.093 18.4402 31.0937 18.4329 31.0944C17.9619 31.1418 17.4839 31.1667 17 31.1667C16.5241 31.1667 16.0537 31.1411 15.5899 31.0951C15.5609 31.0923 15.5311 31.0888 15.5021 31.0854C15.4104 31.0754 15.3232 31.0556 15.2326 31.0442C15.5387 30.8346 15.8355 30.6122 16.1267 30.3833C16.2166 30.3124 16.3045 30.2387 16.393 30.1664C16.6047 29.9931 16.8122 29.8154 17.0156 29.6317C17.102 29.5539 17.1892 29.4768 17.2743 29.3965C17.5229 29.1634 17.7651 28.9241 17.9989 28.6768C18.0234 28.6508 18.0504 28.6259 18.0753 28.5996C18.3316 28.3257 18.5768 28.0407 18.8154 27.7505C18.8836 27.6675 18.9486 27.5818 19.0154 27.4977C19.1873 27.2795 19.3547 27.0571 19.5162 26.8309C19.584 26.7361 19.6514 26.641 19.7171 26.5455C19.8977 26.2806 20.0713 26.0115 20.237 25.7366C20.2667 25.6878 20.2996 25.6397 20.3286 25.5906C20.5206 25.2655 20.699 24.9341 20.8689 24.5962C20.9135 24.5084 20.9539 24.4185 20.9965 24.3299C21.121 24.0712 21.2393 23.8101 21.3506 23.5445C21.3697 23.4991 21.3925 23.4552 21.4115 23.4099L21.4703 23.4282L21.4817 23.3919C23.596 24.1003 25.5363 25.3101 27.1093 26.9052C25.1828 28.8725 22.6923 30.2826 19.8984 30.8664V30.8664ZM18.5816 22.8174C18.4288 23.1547 18.26 23.4843 18.0815 23.807C18.0469 23.8703 18.013 23.9346 17.9774 23.9968C17.79 24.324 17.5894 24.6436 17.3763 24.9546C17.3331 25.0185 17.2878 25.0808 17.2431 25.143C17.0183 25.4612 16.7845 25.7729 16.5348 26.071C16.5282 26.0779 16.522 26.0852 16.5154 26.0928C16.2675 26.3875 16.0056 26.6694 15.7348 26.9429C15.6847 26.9938 15.6352 27.0457 15.584 27.0958C15.3136 27.3621 15.0324 27.6174 14.7411 27.8616C14.6865 27.9076 14.6298 27.9522 14.5748 27.9968C14.2701 28.2448 13.9585 28.4841 13.634 28.7065C13.6326 28.7075 13.6313 28.7089 13.6299 28.7096C13.3048 28.932 12.9669 29.1375 12.6241 29.3322C12.5601 29.3682 12.4972 29.4052 12.4335 29.4404C12.0977 29.6248 11.7543 29.7953 11.4035 29.952C11.3828 29.961 11.3617 29.9696 11.3413 29.979C10.9933 29.8264 10.6513 29.6642 10.3189 29.4857C10.2795 29.4647 10.2397 29.4432 10.2006 29.4221C8.97522 28.7484 7.86257 27.8972 6.89069 26.9052C9.9267 23.8191 14.2452 22.2651 18.6114 22.7586C18.6017 22.778 18.591 22.7977 18.5816 22.8174ZM9.06653 5.26921C9.07656 5.26298 9.08659 5.25572 9.09627 5.2488C9.80115 4.77358 10.5534 4.36546 11.3406 4.02063C11.3624 4.03031 11.3859 4.03896 11.4077 4.04899C11.7563 4.20463 12.0977 4.37411 12.4311 4.55672C12.4972 4.59269 12.5615 4.63039 12.6276 4.66775C12.9696 4.86281 13.3062 5.06688 13.6306 5.28858C13.6326 5.28996 13.6347 5.29204 13.6375 5.29342C13.9612 5.51512 14.2722 5.75377 14.5755 6.00106C14.6315 6.04637 14.6872 6.09099 14.7425 6.13699C15.0338 6.38152 15.3149 6.63642 15.5854 6.90274C15.6366 6.95219 15.6854 7.00407 15.7355 7.05492C16.007 7.32919 16.2699 7.61176 16.5175 7.90644C16.5234 7.91336 16.5296 7.91993 16.5362 7.92685C16.7863 8.22602 17.0197 8.53765 17.2452 8.8555C17.2891 8.91775 17.3345 8.98036 17.3777 9.0433C17.59 9.35424 17.7913 9.67382 17.9788 10.0017C18.0151 10.0646 18.0483 10.1286 18.0829 10.1916C18.2617 10.5153 18.4302 10.8439 18.583 11.1811C18.5924 11.2008 18.6024 11.2198 18.6114 11.2406C14.2438 11.7373 9.9267 10.1795 6.89069 7.09331C7.55302 6.41749 8.27968 5.80323 9.06653 5.26921ZM17 14.1666C17.8346 14.1666 18.6716 14.0981 19.5034 13.9754C19.7192 14.9656 19.8333 15.9779 19.8333 17C19.8333 18.022 19.7192 19.0344 19.5034 20.0246C18.6716 19.9021 17.8346 19.8333 17 19.8333C12.5228 19.8333 8.28176 21.581 5.1119 24.6782C3.67621 22.4633 2.83333 19.8305 2.83333 17C2.83333 14.1694 3.67621 11.5367 5.1119 9.32173C8.28176 12.4193 12.5228 14.1666 17 14.1666ZM28.8815 24.6889C27.0256 22.8814 24.7761 21.5028 22.326 20.6911L22.3502 20.6146L22.2765 20.5977C22.5307 19.4196 22.6667 18.2157 22.6667 17C22.6667 15.7846 22.5307 14.5803 22.2765 13.4016L22.3502 13.3846L22.326 13.3082C24.7761 12.4964 27.0256 11.1182 28.8815 9.31031C30.321 11.528 31.1667 14.1652 31.1667 17C31.1667 19.8347 30.321 22.4719 28.8815 24.6889Z" fill="white"/>
</g>
</g>
</g>
</g>
</g>
</svg>
