<svg width="257" height="42" viewBox="0 0 257 42" fill="none" xmlns="http://www.w3.org/2000/svg">
<path d="M3.44769 6.57252C2.45882 6.57252 1.6303 6.26527 0.962146 5.65076C0.320715 5.00954 0 4.22137 0 3.28626C0 2.35114 0.320715 1.57634 0.962146 0.961832C1.6303 0.32061 2.45882 0 3.44769 0C4.43656 0 5.25171 0.32061 5.89314 0.961832C6.5613 1.57634 6.89538 2.35114 6.89538 3.28626C6.89538 4.22137 6.5613 5.00954 5.89314 5.65076C5.25171 6.26527 4.43656 6.57252 3.44769 6.57252ZM6.21386 9.21756V31.4198H0.601341V9.21756H6.21386Z" fill="white"/>
<path d="M24.1918 8.89695C26.8377 8.89695 28.9758 9.73855 30.6061 11.4218C32.2364 13.0782 33.0515 15.4027 33.0515 18.395V31.4198H27.439V19.1565C27.439 17.3931 26.998 16.0439 26.1161 15.1088C25.2341 14.1469 24.0314 13.666 22.508 13.666C20.9579 13.666 19.7285 14.1469 18.8198 15.1088C17.9378 16.0439 17.4968 17.3931 17.4968 19.1565V31.4198H11.8843V9.21756H17.4968V11.9828C18.2452 11.021 19.194 10.2729 20.3432 9.73855C21.5191 9.17748 22.802 8.89695 24.1918 8.89695Z" fill="white"/>
<path d="M48.6967 13.8263H44.808V31.4198H39.1154V13.8263H36.5897V9.21756H39.1154V8.09542C39.1154 5.37023 39.8904 3.36641 41.4405 2.08397C42.9907 0.801527 45.3292 0.200382 48.4562 0.280535V5.00954C47.0931 4.98282 46.1444 5.20992 45.6098 5.69084C45.0753 6.17176 44.808 7.04008 44.808 8.2958V9.21756H48.6967V13.8263Z" fill="white"/>
<path d="M62.3212 31.7805C60.1831 31.7805 58.2588 31.313 56.5483 30.3779C54.8378 29.416 53.4881 28.0668 52.4993 26.3302C51.5371 24.5935 51.056 22.5897 51.056 20.3187C51.056 18.0477 51.5505 16.0439 52.5393 14.3073C53.5549 12.5706 54.9314 11.2347 56.6686 10.2996C58.4058 9.33779 60.3434 8.85687 62.4815 8.85687C64.6196 8.85687 66.5573 9.33779 68.2945 10.2996C70.0317 11.2347 71.3947 12.5706 72.3836 14.3073C73.3992 16.0439 73.907 18.0477 73.907 20.3187C73.907 22.5897 73.3858 24.5935 72.3435 26.3302C71.3279 28.0668 69.9382 29.416 68.1742 30.3779C66.437 31.313 64.486 31.7805 62.3212 31.7805ZM62.3212 26.8912C63.3368 26.8912 64.2855 26.6508 65.1675 26.1698C66.0762 25.6622 66.7978 24.9141 67.3323 23.9256C67.8669 22.937 68.1341 21.7347 68.1341 20.3187C68.1341 18.208 67.5729 16.5916 66.4504 15.4695C65.3546 14.3206 64.0049 13.7462 62.4013 13.7462C60.7978 13.7462 59.4481 14.3206 58.3523 15.4695C57.2833 16.5916 56.7487 18.208 56.7487 20.3187C56.7487 22.4294 57.2699 24.0592 58.3122 25.208C59.3813 26.3302 60.7176 26.8912 62.3212 26.8912Z" fill="white"/>
<path d="M94.4657 3.44657V23.084C94.4657 25.8092 93.6772 27.9332 92.1004 29.4561C90.5235 30.9523 88.4122 31.7004 85.7663 31.7004C83.0936 31.7004 80.9288 30.9256 79.2718 29.376C77.6415 27.8263 76.8263 25.6622 76.8263 22.8836H82.4389C82.4656 24.0859 82.7462 25.021 83.2807 25.6889C83.842 26.3569 84.6438 26.6908 85.6861 26.6908C86.7017 26.6908 87.4768 26.3702 88.0113 25.729C88.5458 25.0878 88.8131 24.2061 88.8131 23.084V3.44657H94.4657Z" fill="white"/>
<path d="M106.751 12.6641C107.472 11.4885 108.408 10.5668 109.557 9.89886C110.733 9.23092 112.069 8.89695 113.566 8.89695V14.7882H112.082C110.319 14.7882 108.982 15.2023 108.074 16.0305C107.192 16.8588 106.751 18.3015 106.751 20.3588V31.4198H101.138V9.21756H106.751V12.6641Z" fill="white"/>
<path d="M118.514 4.24809C118.22 4.24809 117.966 4.15458 117.752 3.96756C117.565 3.75382 117.471 3.48664 117.471 3.16603C117.471 2.84542 117.565 2.5916 117.752 2.40458C117.966 2.19084 118.22 2.08397 118.514 2.08397C118.808 2.08397 119.048 2.19084 119.235 2.40458C119.449 2.5916 119.556 2.84542 119.556 3.16603C119.556 3.48664 119.449 3.75382 119.235 3.96756C119.048 4.15458 118.808 4.24809 118.514 4.24809ZM118.915 9.77863V31.4198H118.113V9.77863H118.915Z" fill="white"/>
<path d="M135.173 9.29771C137.712 9.29771 139.797 10.0859 141.427 11.6622C143.057 13.2385 143.872 15.6164 143.872 18.7958V31.4198H143.111V18.7156C143.111 15.8836 142.402 13.7328 140.986 12.2634C139.569 10.7672 137.632 10.0191 135.173 10.0191C132.607 10.0191 130.549 10.8607 128.999 12.5439C127.449 14.2004 126.674 16.6584 126.674 19.9179V31.4198H125.872V9.77863H126.674V15.4695C127.182 13.4656 128.197 11.9427 129.721 10.9008C131.244 9.83206 133.062 9.29771 135.173 9.29771Z" fill="white"/>
<path d="M157.598 31.7004C155.22 31.7004 153.295 31.2195 151.825 30.2576C150.382 29.2958 149.54 27.8397 149.3 25.8893H150.102C150.262 27.4924 150.97 28.7481 152.226 29.6565C153.509 30.5382 155.313 30.979 157.638 30.979C158.814 30.979 159.843 30.7519 160.725 30.2977C161.634 29.8435 162.329 29.2424 162.81 28.4943C163.291 27.7195 163.532 26.8912 163.532 26.0095C163.532 25.0477 163.251 24.2729 162.69 23.6851C162.155 23.0706 161.474 22.6031 160.645 22.2824C159.843 21.9618 158.734 21.6145 157.318 21.2405C155.741 20.8397 154.458 20.4389 153.469 20.0382C152.507 19.6374 151.678 19.0229 150.984 18.1947C150.315 17.3664 149.981 16.271 149.981 14.9084C149.981 13.9466 150.275 13.0515 150.863 12.2233C151.451 11.395 152.253 10.7405 153.269 10.2595C154.311 9.75191 155.474 9.49809 156.756 9.49809C158.948 9.49809 160.712 10.0458 162.048 11.1412C163.385 12.2366 164.106 13.7595 164.213 15.7099H163.411C163.331 14.1069 162.716 12.7977 161.567 11.7824C160.445 10.7405 158.841 10.2195 156.756 10.2195C155.634 10.2195 154.618 10.4332 153.71 10.8607C152.801 11.2882 152.079 11.8626 151.545 12.584C151.037 13.3053 150.783 14.0802 150.783 14.9084C150.783 16.084 151.09 17.0324 151.705 17.7538C152.32 18.4752 153.068 19.0095 153.95 19.3569C154.859 19.7042 156.062 20.0782 157.558 20.479C159.082 20.9065 160.271 21.2939 161.126 21.6412C162.008 21.9885 162.757 22.5229 163.371 23.2443C163.986 23.9389 164.293 24.8607 164.293 26.0095C164.293 27.0782 163.999 28.0534 163.411 28.9351C162.823 29.7901 162.022 30.4714 161.006 30.979C159.99 31.4599 158.854 31.7004 157.598 31.7004Z" fill="white"/>
<path d="M170.528 4.24809C170.234 4.24809 169.98 4.15458 169.766 3.96756C169.579 3.75382 169.486 3.48664 169.486 3.16603C169.486 2.84542 169.579 2.5916 169.766 2.40458C169.98 2.19084 170.234 2.08397 170.528 2.08397C170.822 2.08397 171.063 2.19084 171.25 2.40458C171.464 2.5916 171.57 2.84542 171.57 3.16603C171.57 3.48664 171.464 3.75382 171.25 3.96756C171.063 4.15458 170.822 4.24809 170.528 4.24809ZM170.929 9.77863V31.4198H170.127V9.77863H170.929Z" fill="white"/>
<path d="M187.428 9.49809C189.914 9.49809 192.012 10.1393 193.722 11.4218C195.459 12.7042 196.622 14.334 197.21 16.3111V9.77863H197.971V32.2214C197.971 34.2252 197.531 35.9618 196.649 37.4313C195.767 38.9275 194.591 40.063 193.121 40.8378C191.677 41.6126 190.101 42 188.39 42C185.771 42 183.593 41.3588 181.856 40.0763C180.145 38.8206 178.969 37.1107 178.328 34.9466H179.129C179.744 36.8969 180.827 38.4332 182.377 39.5553C183.954 40.7042 185.958 41.2786 188.39 41.2786C190.047 41.2786 191.544 40.9046 192.88 40.1565C194.216 39.4084 195.272 38.3531 196.047 36.9905C196.822 35.6279 197.21 34.0382 197.21 32.2214V24.8473C196.622 26.8511 195.459 28.4943 193.722 29.7767C192.012 31.0592 189.914 31.7004 187.428 31.7004C185.37 31.7004 183.539 31.2595 181.936 30.3779C180.332 29.4695 179.089 28.187 178.207 26.5305C177.325 24.8473 176.884 22.8702 176.884 20.5992C176.884 18.3282 177.325 16.3645 178.207 14.708C179.089 13.0248 180.332 11.7424 181.936 10.8607C183.539 9.95229 185.37 9.49809 187.428 9.49809ZM197.21 20.5992C197.21 18.542 196.782 16.7385 195.927 15.1889C195.098 13.6126 193.936 12.3969 192.439 11.542C190.969 10.6603 189.299 10.2195 187.428 10.2195C185.45 10.2195 183.726 10.6336 182.256 11.4618C180.813 12.2901 179.691 13.4924 178.889 15.0687C178.087 16.6183 177.686 18.4618 177.686 20.5992C177.686 22.7366 178.087 24.5935 178.889 26.1698C179.691 27.7195 180.813 28.9084 182.256 29.7366C183.726 30.5649 185.45 30.979 187.428 30.979C189.299 30.979 190.969 30.5515 192.439 29.6966C193.936 28.8149 195.098 27.5992 195.927 26.0496C196.782 24.4733 197.21 22.6565 197.21 20.5992Z" fill="white"/>
<path d="M214.209 9.29771C216.748 9.29771 218.832 10.0859 220.463 11.6622C222.093 13.2385 222.908 15.6164 222.908 18.7958V31.4198H222.146V18.7156C222.146 15.8836 221.438 13.7328 220.022 12.2634C218.605 10.7672 216.667 10.0191 214.209 10.0191C211.643 10.0191 209.585 10.8607 208.035 12.5439C206.485 14.2004 205.71 16.6584 205.71 19.9179V31.4198H204.908V1.76336H205.71V15.4695C206.217 13.4656 207.233 11.9427 208.757 10.9008C210.28 9.83206 212.097 9.29771 214.209 9.29771Z" fill="white"/>
<path d="M231.382 10.5802V25.729C231.382 27.0382 231.529 28.0401 231.823 28.7347C232.117 29.4294 232.585 29.9237 233.226 30.2176C233.868 30.4847 234.763 30.6183 235.912 30.6183H238.197V31.4198H235.832C233.961 31.4198 232.612 30.9924 231.783 30.1374C230.981 29.2824 230.58 27.813 230.58 25.729V10.5802H227.053V9.77863H230.58V4.24809H231.382V9.77863H238.197V10.5802H231.382Z" fill="white"/>
<path d="M250.305 31.7004C247.926 31.7004 246.002 31.2195 244.532 30.2576C243.089 29.2958 242.247 27.8397 242.007 25.8893H242.808C242.969 27.4924 243.677 28.7481 244.933 29.6565C246.216 30.5382 248.02 30.979 250.345 30.979C251.521 30.979 252.55 30.7519 253.432 30.2977C254.341 29.8435 255.036 29.2424 255.517 28.4943C255.998 27.7195 256.238 26.8912 256.238 26.0095C256.238 25.0477 255.958 24.2729 255.396 23.6851C254.862 23.0706 254.18 22.6031 253.352 22.2824C252.55 21.9618 251.441 21.6145 250.024 21.2405C248.448 20.8397 247.165 20.4389 246.176 20.0382C245.214 19.6374 244.385 19.0229 243.69 18.1947C243.022 17.3664 242.688 16.271 242.688 14.9084C242.688 13.9466 242.982 13.0515 243.57 12.2233C244.158 11.395 244.96 10.7405 245.975 10.2595C247.018 9.75191 248.18 9.49809 249.463 9.49809C251.655 9.49809 253.419 10.0458 254.755 11.1412C256.091 12.2366 256.813 13.7595 256.92 15.7099H256.118C256.038 14.1069 255.423 12.7977 254.274 11.7824C253.151 10.7405 251.548 10.2195 249.463 10.2195C248.341 10.2195 247.325 10.4332 246.416 10.8607C245.508 11.2882 244.786 11.8626 244.252 12.584C243.744 13.3053 243.49 14.0802 243.49 14.9084C243.49 16.084 243.797 17.0324 244.412 17.7538C245.027 18.4752 245.775 19.0095 246.657 19.3569C247.566 19.7042 248.768 20.0782 250.265 20.479C251.788 20.9065 252.978 21.2939 253.833 21.6412C254.715 21.9885 255.463 22.5229 256.078 23.2443C256.693 23.9389 257 24.8607 257 26.0095C257 27.0782 256.706 28.0534 256.118 28.9351C255.53 29.7901 254.728 30.4714 253.713 30.979C252.697 31.4599 251.561 31.7004 250.305 31.7004Z" fill="white"/>
</svg>
