<svg width="170" height="18" viewBox="0 0 170 18" fill="none" xmlns="http://www.w3.org/2000/svg">
<path d="M6.76735 4.73222C6.76735 4.36242 6.64457 4.17752 6.39901 4.17752C6.15827 4.17752 5.85734 4.22647 5.49622 4.32435C5.13992 4.42224 4.75713 4.57451 4.34786 4.78117C3.41377 5.2543 2.56875 5.90689 1.81281 6.73894C1.7117 6.83683 1.57448 6.88578 1.40114 6.88578C1.23262 6.88578 1.09058 6.83955 0.975019 6.7471C0.859461 6.64921 0.801682 6.52413 0.801682 6.37186C0.801682 6.21959 0.830572 6.05916 0.888351 5.89057C0.94613 5.71655 1.00632 5.51261 1.06891 5.27877C1.1315 5.03949 1.1965 4.80292 1.26391 4.56908C1.43725 4.00894 1.59855 3.63913 1.74781 3.45967C2.02226 3.20407 2.75654 2.92128 3.95063 2.6113C5.27473 2.26869 6.56994 2.09739 7.83626 2.09739C8.3659 2.09739 8.80406 2.31764 9.15073 2.75814C9.44926 3.13881 9.59852 3.53853 9.59852 3.95727C9.59852 4.3162 9.36259 5.16728 8.89073 6.51054C8.14442 8.65321 7.38126 10.3282 6.60124 11.5355C6.38457 11.8727 6.17031 12.1473 5.95845 12.3594C5.6503 12.6313 5.24584 12.8597 4.74509 13.0446C3.89767 13.3655 3.34636 13.5259 3.09117 13.5259C2.8408 13.5259 2.59283 13.4878 2.34727 13.4117C2.10171 13.341 1.86337 13.2485 1.63225 13.1343C1.40595 13.0147 1.1941 12.8815 0.996686 12.7346C0.799275 12.5824 0.625938 12.4328 0.476676 12.286C0.158892 11.9651 0 11.7041 0 11.5029C0 11.3125 0.204634 11.0053 0.613901 10.5811C1.0328 10.146 1.37706 9.92848 1.6467 9.92848C1.82967 9.92848 2.05115 10.0073 2.31116 10.165L2.86728 10.524C2.98765 10.5947 3.09358 10.63 3.18506 10.63C3.28136 10.63 3.41377 10.5539 3.58229 10.4016C3.75081 10.2439 3.93137 10.0372 4.12397 9.78165C4.31657 9.52605 4.51398 9.23238 4.7162 8.90065C4.92324 8.56892 5.12306 8.22903 5.31566 7.88098C5.51307 7.52749 5.69845 7.17672 5.87178 6.82867C6.04993 6.48062 6.20401 6.16249 6.33401 5.87426C6.62291 5.24886 6.76735 4.86818 6.76735 4.73222Z" fill="#7CB124"/>
<path d="M22.1149 7.13865C22.3315 7.13865 22.4399 7.26373 22.4399 7.51389C22.4399 7.91089 22.2088 8.47103 21.7465 9.19432C21.4239 9.70007 20.7595 10.4016 19.7532 11.2989C18.5543 12.3594 17.5913 12.8896 16.8642 12.8896C16.3153 12.8896 15.9012 12.6286 15.622 12.1065C15.4535 11.7911 15.3162 11.3288 15.2103 10.7197L14.5675 11.2418C12.8004 12.6231 11.4812 13.3138 10.6097 13.3138C9.8826 13.3138 9.3 13.0147 8.86184 12.4165C8.47665 11.8781 8.28405 11.2337 8.28405 10.4832C8.28405 9.65657 8.53443 9.00398 9.03518 8.52541C10.0559 7.5574 11.3247 6.7607 12.8414 6.1353C13.4577 5.8797 13.8477 5.7519 14.0114 5.7519C14.1751 5.7519 14.3244 5.78453 14.4592 5.84979C14.5988 5.90961 14.736 5.98846 14.8708 6.08635C15.1886 6.33107 15.3475 6.56764 15.3475 6.79604C15.3475 6.98094 15.2464 7.1305 15.0442 7.2447C14.9816 7.28277 14.8757 7.33443 14.7264 7.39969C14.5771 7.46495 14.3942 7.55468 14.1775 7.66888C13.5949 7.97887 13.0267 8.35411 12.473 8.7946C12.0782 9.17528 11.8808 9.47983 11.8808 9.70823C11.8808 9.9312 12.0204 10.0427 12.2997 10.0427C12.5308 10.0427 12.993 9.81156 13.6864 9.34931C13.6864 9.34931 13.891 9.20791 14.3003 8.92512C14.7384 8.61514 15.0899 8.33235 15.3547 8.07675C15.3547 8.07675 15.4655 7.66888 15.687 6.85315C16.0962 5.39569 16.5513 4.19112 17.052 3.23942C17.9379 1.31972 18.8287 0.359863 19.7243 0.359863C20.0517 0.359863 20.3117 0.427842 20.5043 0.563798C20.851 0.80852 21.0243 1.08043 21.0243 1.37954C21.0243 1.6732 20.9762 1.9859 20.8799 2.31764C20.7836 2.64937 20.656 2.97839 20.4971 3.30468C20.343 3.63098 20.1648 3.95455 19.9626 4.27541L18.7276 6.11898C18.5205 6.41808 18.3376 6.70903 18.1787 6.99182C17.8994 7.6716 17.7598 8.2535 17.7598 8.7375C17.7598 9.4336 17.9837 9.78165 18.4315 9.78165C18.6867 9.78165 19.1465 9.47983 19.8109 8.87618L20.6632 8.06044C21.0628 7.65801 21.4576 7.37522 21.8477 7.21207C21.9584 7.16313 22.0475 7.13865 22.1149 7.13865Z" fill="#7CB124"/>
<path d="M30.8395 7.17128C31.0706 7.17128 31.1862 7.31812 31.1862 7.61178C31.1862 7.80756 31.126 8.055 31.0056 8.3541C30.89 8.64777 30.7215 8.92512 30.5 9.18616C30.2786 9.44176 30.0234 9.70823 29.7345 9.98558C29.4504 10.2629 29.1158 10.5539 28.7306 10.8584C28.3502 11.163 27.9289 11.4648 27.4667 11.7639C27.0044 12.063 26.5133 12.3322 25.9933 12.5715C24.8425 13.1044 23.7279 13.3709 22.6493 13.3709C21.826 13.3709 21.1062 13.1289 20.4898 12.6449C19.8446 12.1391 19.522 11.5246 19.522 10.8013C19.522 9.66473 20.0637 8.58523 21.1471 7.56284C22.0812 6.68184 23.1814 5.99934 24.4477 5.51533C25.2181 5.22167 25.8705 5.07483 26.405 5.07483C26.8383 5.07483 27.2042 5.19448 27.5028 5.43376C27.8205 5.6948 27.9794 6.04556 27.9794 6.48606C27.9794 7.17672 27.4955 7.9408 26.5277 8.77829C26.3737 8.91425 26.234 9.02845 26.1088 9.1209L25.8488 9.31668C25.3673 9.69736 24.6355 10.1243 23.6532 10.5974C23.9566 10.7768 24.2383 10.8666 24.4983 10.8666C24.7631 10.8666 24.999 10.8312 25.206 10.7605C25.4179 10.6898 25.6562 10.5892 25.9211 10.4587C26.1859 10.3282 26.4676 10.1732 26.7661 9.99374C27.0694 9.80884 27.3752 9.60762 27.6833 9.39009C28.3719 8.90609 28.9689 8.41121 29.4745 7.90545C29.7393 7.6281 30.0763 7.40785 30.4856 7.2447C30.6204 7.19576 30.7384 7.17128 30.8395 7.17128ZM22.8732 9.46351L23.2705 9.2351C23.4005 9.15897 23.516 9.08827 23.6171 9.02301C24.5897 8.39217 25.1435 8.00334 25.2783 7.8565C25.4131 7.70967 25.4805 7.60906 25.4805 7.55468C25.4805 7.49486 25.4661 7.42688 25.4372 7.35075C25.4083 7.27461 25.3698 7.20663 25.3216 7.14681C25.206 6.99454 25.0833 6.9184 24.9533 6.9184C24.8233 6.9184 24.6788 6.9456 24.5199 6.99998C24.3658 7.05436 24.2094 7.1305 24.0505 7.22839C23.8916 7.32084 23.7375 7.43504 23.5882 7.571C23.4438 7.70151 23.3162 7.84291 23.2055 7.99518C22.9503 8.33779 22.8227 8.63418 22.8227 8.88434C22.8227 9.1345 22.8395 9.32755 22.8732 9.46351Z" fill="#7CB124"/>
<path d="M35.7218 3.73702C35.5822 3.86754 35.4305 3.97631 35.2668 4.06332C35.1031 4.14489 34.9201 4.18568 34.7179 4.18568C34.5157 4.18568 34.3207 4.14761 34.1329 4.07148C33.9451 3.99534 33.7814 3.88929 33.6418 3.75334C33.3384 3.45967 33.1868 3.08443 33.1868 2.62762C33.1868 1.92608 33.7068 1.40401 34.7468 1.0614C35.0983 0.941757 35.3872 0.881936 35.6135 0.881936C35.8398 0.881936 36.0083 0.911847 36.119 0.971668C36.2346 1.02605 36.3285 1.09947 36.4007 1.19192C36.5452 1.37682 36.6174 1.56716 36.6174 1.76293C36.6174 1.95327 36.5957 2.1273 36.5524 2.28501C36.5139 2.44272 36.4561 2.60586 36.379 2.77445C36.302 2.94304 36.2081 3.11162 36.0974 3.28021C35.9866 3.44879 35.8614 3.60107 35.7218 3.73702ZM33.9018 12.7183C33.5358 12.9304 33.1795 13.099 32.8329 13.2241C32.4862 13.3546 32.1443 13.4198 31.8073 13.4198C31.4751 13.4198 31.1284 13.3301 30.7673 13.1507C30.411 12.9657 30.0932 12.721 29.8139 12.4165C29.1928 11.7367 28.8822 10.9808 28.8822 10.1487C28.8822 9.38194 29.0845 8.60427 29.4889 7.81572C29.8597 7.10331 30.3315 6.5051 30.9045 6.02109C31.4775 5.53709 32.0095 5.29508 32.5006 5.29508C33.2036 5.29508 33.5792 5.51805 33.6273 5.96399C33.6418 6.09995 33.649 6.25766 33.649 6.43712C33.649 6.61658 33.6105 6.82324 33.5334 7.05708C33.4612 7.28549 33.3649 7.51661 33.2445 7.75046C33.129 7.97887 32.999 8.20455 32.8545 8.42752C32.7149 8.64505 32.5801 8.84355 32.4501 9.02301C32.1997 9.36562 31.9999 9.61306 31.8506 9.76533C31.8506 9.95023 31.9734 10.1406 32.219 10.3364C32.4501 10.5213 32.6451 10.6137 32.804 10.6137C32.9677 10.6137 33.1579 10.5702 33.3745 10.4832C33.596 10.3962 33.8223 10.2792 34.0534 10.1324C34.2894 9.98558 34.5277 9.817 34.7685 9.62666C35.014 9.43632 35.2548 9.24054 35.4907 9.03933L36.8124 7.87282C37.3372 7.4432 37.7633 7.22839 38.0907 7.22839C38.2207 7.22839 38.3195 7.28277 38.3869 7.39153C38.4591 7.49486 38.4952 7.61722 38.4952 7.75862C38.4952 7.90001 38.4326 8.09579 38.3074 8.34595C38.1822 8.59067 38.0089 8.86258 37.7874 9.16169C37.5707 9.46079 37.3155 9.77349 37.0218 10.0998C36.7281 10.4261 36.4103 10.7469 36.0685 11.0624C35.7266 11.3778 35.3703 11.6796 34.9996 11.9678C34.6336 12.2506 34.2677 12.5008 33.9018 12.7183Z" fill="#7CB124"/>
<path d="M49.3721 7.04077C49.5262 7.04077 49.6032 7.1876 49.6032 7.48126C49.6032 7.98702 49.2902 8.64233 48.6643 9.4472L48.2526 9.92032C47.0056 11.3288 45.8307 12.2669 44.7281 12.7346C44.0444 13.0229 43.5533 13.0093 43.2547 12.6938C43.0092 12.4274 42.8142 11.9977 42.6697 11.405L42.4964 10.6953L40.958 11.7639L40.0697 12.3349C39.0104 12.9875 38.2159 13.3138 37.6863 13.3138C37.0074 13.3138 36.4416 13.0174 35.989 12.4246C35.5557 11.8645 35.339 11.2146 35.339 10.475C35.339 9.7463 35.5966 9.09643 36.1118 8.52541C36.8485 7.70967 38.0113 6.96191 39.6002 6.28213C41.1025 5.64585 42.3158 5.32771 43.2403 5.32771C43.5533 5.32771 43.7097 5.50174 43.7097 5.84979C43.7097 6.08907 43.6688 6.26853 43.587 6.38817C43.5051 6.50782 43.3366 6.63018 43.0814 6.75526L42.1714 7.19576C40.8232 7.83203 39.8362 8.49278 39.2102 9.178C39.0321 9.36834 38.943 9.55324 38.943 9.7327C38.943 9.91217 39.0706 10.0019 39.3258 10.0019C39.5761 10.0019 40.1587 9.69736 41.0736 9.08827L41.673 8.68856C42.6023 8.05772 43.3799 7.7423 44.0059 7.7423C44.5355 7.7423 44.887 8.00606 45.0603 8.53357C45.1037 8.67496 45.1446 8.81908 45.1831 8.96591C45.2216 9.1073 45.2601 9.2351 45.2987 9.34931C45.3853 9.61578 45.4624 9.74902 45.5298 9.74902C45.602 9.74902 45.7031 9.71095 45.8331 9.63482C45.9631 9.55324 46.1052 9.45263 46.2592 9.33299C46.4181 9.20791 46.5818 9.07196 46.7504 8.92512L47.6243 8.13386C48.3995 7.40513 48.9821 7.04077 49.3721 7.04077Z" fill="#7CB124"/>
<path d="M52.456 5.22167C52.5042 5.33043 52.5283 5.47455 52.5283 5.65401C52.5283 5.82803 52.4488 6.02653 52.2899 6.2495C52.4151 6.39633 52.574 6.56764 52.7666 6.76341C52.964 6.95375 53.1542 7.16313 53.3372 7.39153C53.7801 7.95167 54.0016 8.48734 54.0016 8.99854C54.0016 9.33571 53.797 9.7463 53.3877 10.2303C53.2625 10.3826 53.1253 10.524 52.976 10.6545C53.4768 10.437 54.0787 10.0046 54.7816 9.35746L55.6266 8.57436C56.1178 8.1121 56.4452 7.84563 56.6089 7.77493C56.7774 7.70423 56.9291 7.66888 57.0639 7.66888C57.1987 7.66888 57.3287 7.70695 57.4539 7.78309C57.5839 7.85922 57.6489 7.9843 57.6489 8.15833C57.6489 8.32691 57.6248 8.49278 57.5767 8.65593C57.5285 8.81364 57.4708 8.96047 57.4033 9.09643C57.307 9.2922 57.1674 9.49342 56.9845 9.70007C56.4789 10.2385 55.9878 10.7333 55.5111 11.1847C55.0392 11.6307 54.5505 12.0141 54.0449 12.3349C52.976 13.0093 51.7916 13.3464 50.4915 13.3464C49.7645 13.3464 49.1337 13.1371 48.5993 12.7183C48.3778 12.5443 48.2069 12.3648 48.0865 12.1799C47.9709 11.9896 47.9132 11.8427 47.9132 11.7394C47.9132 11.6307 47.9445 11.5192 48.0071 11.405C48.0696 11.2853 48.1539 11.163 48.2598 11.0379C48.3658 10.9128 48.4861 10.7877 48.621 10.6626C48.7606 10.5376 48.9026 10.4261 49.0471 10.3282C49.3841 10.1052 49.6345 9.99374 49.7982 9.99374C49.9667 9.99374 50.0943 10.0182 50.181 10.0672C50.2677 10.1107 50.3471 10.1596 50.4193 10.214C50.6167 10.3663 50.7564 10.4424 50.8382 10.4424C51.0356 10.4424 51.1343 10.2901 51.1343 9.98558C51.1343 9.70279 51.0019 9.3629 50.7371 8.96591C50.6312 8.80276 50.5204 8.64233 50.4049 8.48462C50.2893 8.32691 50.193 8.17192 50.116 8.01965C49.9619 8.22087 49.7693 8.42752 49.5382 8.63961L48.8376 9.30852C48.3513 9.78165 47.9011 10.0073 47.487 9.98558C47.2463 9.96383 47.1259 9.66201 47.1259 9.08011C47.1259 8.97679 47.1331 8.87618 47.1476 8.77829C47.1717 8.6097 47.3185 8.40577 47.5882 8.16649C47.8578 7.9272 48.0528 7.76405 48.1732 7.67704C48.2984 7.58459 48.4043 7.50302 48.491 7.43232L49.2565 6.84499C49.2565 6.29029 49.5406 5.78181 50.1088 5.31956C50.648 4.8845 51.1825 4.66697 51.7121 4.66697C52.0492 4.66697 52.2971 4.85187 52.456 5.22167Z" fill="#7CB124"/>
<path d="M65.1457 11.1276C65.3046 11.0515 65.5261 10.9318 65.8102 10.7687C67.5484 9.76262 68.5017 9.20791 68.6702 9.10458L68.9736 8.91697C69.2865 8.68856 69.431 8.5091 69.4069 8.37858C69.354 8.10123 69.2215 7.98974 69.0097 8.04412C68.7978 8.09307 68.5763 8.16105 68.3452 8.24806C68.1189 8.33507 67.8782 8.44112 67.623 8.5662C67.0885 8.81636 66.6191 9.06652 66.2146 9.31668C64.799 10.2357 63.9468 10.7932 63.6579 10.9889C63.4509 11.5165 63.2655 12.0412 63.1018 12.5633L62.2279 15.3531C61.9534 16.2178 61.6766 16.8024 61.3973 17.107C61.2481 17.2756 61.0819 17.3599 60.899 17.3599C60.4464 17.3599 60.0901 17.1804 59.8301 16.8215C59.5701 16.468 59.4401 16.0166 59.4401 15.4673C59.4401 14.9235 59.5026 14.3851 59.6278 13.8522C59.753 13.3247 59.9264 12.789 60.1478 12.2452C60.5956 11.1467 61.1951 10.1215 61.9462 9.16984C62.4036 7.78309 63.1644 6.43712 64.2285 5.13194C64.8785 4.33795 65.4828 3.77781 66.0413 3.45151C66.3206 3.28837 66.5589 3.20679 66.7563 3.20679C66.9537 3.20679 67.103 3.25846 67.2041 3.36178C67.3052 3.45967 67.3558 3.58475 67.3558 3.73702C67.3558 3.88386 67.3148 4.07148 67.233 4.29988C67.1511 4.52829 67.0404 4.78389 66.9008 5.06668C66.7611 5.34947 66.5974 5.65129 66.4096 5.97215L65.8102 6.95919C65.762 7.04077 65.738 7.11418 65.738 7.17944C65.738 7.28277 65.7933 7.33443 65.9041 7.33443C66.0293 7.33443 66.2604 7.2447 66.5974 7.06524L67.753 6.46159C68.7641 5.94496 69.7319 5.68664 70.6564 5.68664C71.1379 5.68664 71.5905 5.94496 72.0142 6.46159C72.4427 6.98366 72.657 7.5438 72.657 8.14201C72.657 9.06652 72.3223 9.77893 71.6531 10.2792L70.7575 10.9482C70.4349 11.1766 70.1027 11.4022 69.7608 11.6252L68.7208 12.2697C67.5508 12.9549 66.6456 13.2975 66.0052 13.2975C65.3696 13.2975 64.9074 13.2078 64.6185 13.0283C64.3296 12.8488 64.1852 12.5959 64.1852 12.2697C64.1852 11.8292 64.5053 11.4485 65.1457 11.1276Z" fill="#7CB124"/>
<path d="M84.9928 7.04077C85.1469 7.04077 85.2239 7.1876 85.2239 7.48126C85.2239 7.98702 84.9109 8.64233 84.285 9.4472L83.8733 9.92032C82.6263 11.3288 81.4514 12.2669 80.3488 12.7346C79.6651 13.0229 79.174 13.0093 78.8754 12.6938C78.6299 12.4274 78.4349 11.9977 78.2904 11.405L78.1171 10.6953L76.5787 11.7639L75.6904 12.3349C74.6311 12.9875 73.8366 13.3138 73.307 13.3138C72.6281 13.3138 72.0623 13.0174 71.6097 12.4246C71.1764 11.8645 70.9597 11.2146 70.9597 10.475C70.9597 9.7463 71.2173 9.09643 71.7325 8.52541C72.4692 7.70967 73.632 6.96191 75.2209 6.28213C76.7232 5.64585 77.9365 5.32771 78.861 5.32771C79.174 5.32771 79.3304 5.50174 79.3304 5.84979C79.3304 6.08907 79.2895 6.26853 79.2077 6.38817C79.1258 6.50782 78.9573 6.63018 78.7021 6.75526L77.7921 7.19576C76.4439 7.83203 75.4568 8.49278 74.8309 9.178C74.6528 9.36834 74.5637 9.55324 74.5637 9.7327C74.5637 9.91217 74.6913 10.0019 74.9465 10.0019C75.1968 10.0019 75.7794 9.69736 76.6943 9.08827L77.2937 8.68856C78.223 8.05772 79.0006 7.7423 79.6266 7.7423C80.1562 7.7423 80.5077 8.00606 80.681 8.53357C80.7244 8.67496 80.7653 8.81908 80.8038 8.96591C80.8423 9.1073 80.8808 9.2351 80.9194 9.34931C81.006 9.61578 81.0831 9.74902 81.1505 9.74902C81.2227 9.74902 81.3238 9.71095 81.4538 9.63482C81.5838 9.55324 81.7259 9.45263 81.8799 9.33299C82.0388 9.20791 82.2025 9.07196 82.3711 8.92512L83.245 8.13386C84.0202 7.40513 84.6028 7.04077 84.9928 7.04077Z" fill="#7CB124"/>
<path d="M83.1077 10.475C83.0163 10.475 82.9272 10.4506 82.8405 10.4016C82.749 10.3527 82.6648 10.2738 82.5877 10.165C82.4192 9.92576 82.3349 9.59947 82.3349 9.18616C82.3349 8.74566 82.5685 8.1964 83.0355 7.53837C83.4881 6.90209 84.0154 6.35283 84.6172 5.89057C85.2624 5.39025 85.8161 5.14009 86.2784 5.14009C86.6876 5.14009 86.9645 5.27061 87.1089 5.53165L87.21 5.71111C87.2871 5.84707 87.3641 5.91505 87.4412 5.91505C87.5182 5.91505 87.6386 5.90689 87.8023 5.89057L88.8279 5.809C88.9867 5.79268 89.1119 5.78453 89.2034 5.78453C89.2949 5.78453 89.3984 5.8226 89.514 5.89873C89.6343 5.96943 89.7403 6.0646 89.8318 6.18424C90.034 6.45615 90.1351 6.75526 90.1351 7.08155C90.1351 7.41872 89.8053 7.94895 89.1456 8.67224L88.669 9.21063C88.3271 9.60762 88.1562 9.85778 88.1562 9.96111C88.1562 10.0644 88.1995 10.1569 88.2862 10.2385C88.3728 10.3146 88.4667 10.3527 88.5678 10.3527C88.669 10.3527 88.7821 10.3228 88.9073 10.2629C89.0373 10.1977 89.1962 10.1052 89.384 9.98558C89.5718 9.8605 89.786 9.71095 90.0268 9.53693C90.6864 9.04748 91.127 8.71031 91.3485 8.52541L91.9479 8.04412C92.3572 7.71783 92.6485 7.55468 92.8218 7.55468C92.9952 7.55468 93.1372 7.59819 93.2479 7.6852C93.3587 7.76677 93.4141 7.91089 93.4141 8.11754C93.4141 8.32419 93.3202 8.60155 93.1324 8.94959C92.9446 9.29764 92.74 9.59947 92.5185 9.85507C92.3018 10.1107 92.09 10.3472 91.8829 10.5648C91.6759 10.7823 91.4303 11.0189 91.1462 11.2745C90.867 11.5246 90.5564 11.7802 90.2145 12.0412C89.8727 12.2968 89.5116 12.528 89.1312 12.7346C88.2693 13.2078 87.4773 13.4443 86.755 13.4443C85.7006 13.4443 85.0578 13.1371 84.8267 12.5225C84.7544 12.3376 84.7183 12.131 84.7183 11.9026C84.7183 11.6742 84.7568 11.4294 84.8339 11.1684C84.9109 10.9019 85.012 10.6382 85.1372 10.3771C85.3876 9.8605 85.6837 9.40369 86.0256 9.0067C86.3145 8.66409 86.4589 8.46015 86.4589 8.39489C86.4589 8.29156 86.406 8.22631 86.3 8.19911C86.1989 8.17192 86.0472 8.15833 85.845 8.15833C85.7583 8.15833 85.573 8.29972 85.2889 8.58251L84.5811 9.31668C83.83 10.0889 83.3389 10.475 83.1077 10.475Z" fill="#7CB124"/>
<path d="M104.638 7.04077C104.792 7.04077 104.869 7.1876 104.869 7.48126C104.869 7.98702 104.556 8.64233 103.93 9.4472L103.518 9.92032C102.271 11.3288 101.096 12.2669 99.9936 12.7346C99.3099 13.0229 98.8188 13.0093 98.5203 12.6938C98.2747 12.4274 98.0797 11.9977 97.9352 11.405L97.7619 10.6953L96.2235 11.7639L95.3352 12.3349C94.2759 12.9875 93.4815 13.3138 92.9518 13.3138C92.2729 13.3138 91.7072 13.0174 91.2546 12.4246C90.8212 11.8645 90.6046 11.2146 90.6046 10.475C90.6046 9.7463 90.8622 9.09643 91.3773 8.52541C92.114 7.70967 93.2768 6.96191 94.8657 6.28213C96.368 5.64585 97.5814 5.32771 98.5058 5.32771C98.8188 5.32771 98.9753 5.50174 98.9753 5.84979C98.9753 6.08907 98.9343 6.26853 98.8525 6.38817C98.7706 6.50782 98.6021 6.63018 98.3469 6.75526L97.4369 7.19576C96.0887 7.83203 95.1017 8.49278 94.4757 9.178C94.2976 9.36834 94.2085 9.55324 94.2085 9.7327C94.2085 9.91217 94.3361 10.0019 94.5913 10.0019C94.8417 10.0019 95.4243 9.69736 96.3391 9.08827L96.9386 8.68856C97.8678 8.05772 98.6455 7.7423 99.2714 7.7423C99.801 7.7423 100.153 8.00606 100.326 8.53357C100.369 8.67496 100.41 8.81908 100.449 8.96591C100.487 9.1073 100.526 9.2351 100.564 9.34931C100.651 9.61578 100.728 9.74902 100.795 9.74902C100.868 9.74902 100.969 9.71095 101.099 9.63482C101.229 9.55324 101.371 9.45263 101.525 9.33299C101.684 9.20791 101.847 9.07196 102.016 8.92512L102.89 8.13386C103.665 7.40513 104.248 7.04077 104.638 7.04077Z" fill="#7CB124"/>
<path d="M121.841 7.04077C121.995 7.04077 122.072 7.1876 122.072 7.48126C122.072 7.98702 121.759 8.64233 121.133 9.4472L120.722 9.92032C119.475 11.3288 118.3 12.2669 117.197 12.7346C116.514 13.0229 116.022 13.0093 115.724 12.6938C115.478 12.4274 115.283 11.9977 115.139 11.405L114.966 10.6953L113.427 11.7639L112.539 12.3349C111.48 12.9875 110.685 13.3138 110.155 13.3138C109.477 13.3138 108.911 13.0174 108.458 12.4246C108.025 11.8645 107.808 11.2146 107.808 10.475C107.808 9.7463 108.066 9.09643 108.581 8.52541C109.318 7.70967 110.48 6.96191 112.069 6.28213C113.572 5.64585 114.785 5.32771 115.709 5.32771C116.022 5.32771 116.179 5.50174 116.179 5.84979C116.179 6.08907 116.138 6.26853 116.056 6.38817C115.974 6.50782 115.806 6.63018 115.551 6.75526L114.641 7.19576C113.292 7.83203 112.305 8.49278 111.679 9.178C111.501 9.36834 111.412 9.55324 111.412 9.7327C111.412 9.91217 111.54 10.0019 111.795 10.0019C112.045 10.0019 112.628 9.69736 113.543 9.08827L114.142 8.68856C115.072 8.05772 115.849 7.7423 116.475 7.7423C117.005 7.7423 117.356 8.00606 117.53 8.53357C117.573 8.67496 117.614 8.81908 117.652 8.96591C117.691 9.1073 117.729 9.2351 117.768 9.34931C117.855 9.61578 117.932 9.74902 117.999 9.74902C118.071 9.74902 118.172 9.71095 118.302 9.63482C118.432 9.55324 118.574 9.45263 118.728 9.33299C118.887 9.20791 119.051 9.07196 119.22 8.92512L120.093 8.13386C120.869 7.40513 121.451 7.04077 121.841 7.04077Z" fill="#7CB124"/>
<path d="M136.777 7.90545C136.777 8.16105 136.481 8.65593 135.889 9.39009C135.282 10.1351 134.687 10.7415 134.105 11.2092C132.978 12.1554 131.729 12.8026 130.356 13.1507C129.836 13.2866 129.343 13.3546 128.876 13.3546C128.414 13.3546 128.028 13.3084 127.72 13.2159C127.417 13.1289 127.142 13.012 126.897 12.8651C126.656 12.7129 126.447 12.5388 126.269 12.3431C126.09 12.1473 125.941 11.9406 125.821 11.7231C125.585 11.2989 125.467 10.9074 125.467 10.5484C125.467 10.1895 125.503 9.8741 125.575 9.60219C125.643 9.33027 125.739 9.07196 125.864 8.82723C126.302 7.93536 127.183 7.14681 128.508 6.46159C129.552 5.91233 130.549 5.55612 131.498 5.39297C131.907 5.32228 132.198 5.28693 132.371 5.28693C132.545 5.28693 132.689 5.30868 132.805 5.35219C132.925 5.39025 133.029 5.44464 133.115 5.51533C133.308 5.67304 133.404 5.88785 133.404 6.15977C133.404 6.43168 133.342 6.69 133.217 6.93472C133.091 7.174 132.932 7.37522 132.74 7.53837C132.364 7.85379 131.945 8.01149 131.483 8.01149C130.852 8.01149 130.332 7.91904 129.923 7.73414C129.639 7.84835 129.398 8.05772 129.201 8.36226C129.037 8.61242 128.955 8.83811 128.955 9.03933C128.955 9.2351 128.994 9.42816 129.071 9.6185C129.153 9.8034 129.266 9.96927 129.41 10.1161C129.728 10.4315 130.111 10.5892 130.559 10.5892C131.599 10.5892 132.81 9.96655 134.192 8.72119L134.849 8.14201C135.542 7.5438 136.036 7.2447 136.329 7.2447C136.628 7.2447 136.777 7.46495 136.777 7.90545Z" fill="#7CB124"/>
<path d="M134.704 10.475C134.613 10.475 134.524 10.4506 134.437 10.4016C134.346 10.3527 134.261 10.2738 134.184 10.165C134.016 9.92576 133.932 9.59947 133.932 9.18616C133.932 8.74566 134.165 8.1964 134.632 7.53837C135.085 6.90209 135.612 6.35283 136.214 5.89057C136.859 5.39025 137.413 5.14009 137.875 5.14009C138.284 5.14009 138.561 5.27061 138.705 5.53165L138.807 5.71111C138.884 5.84707 138.961 5.91505 139.038 5.91505C139.115 5.91505 139.235 5.90689 139.399 5.89057L140.424 5.809C140.583 5.79268 140.709 5.78453 140.8 5.78453C140.891 5.78453 140.995 5.8226 141.111 5.89873C141.231 5.96943 141.337 6.0646 141.428 6.18424C141.631 6.45615 141.732 6.75526 141.732 7.08155C141.732 7.41872 141.402 7.94895 140.742 8.67224L140.266 9.21063C139.924 9.60762 139.753 9.85778 139.753 9.96111C139.753 10.0644 139.796 10.1569 139.883 10.2385C139.969 10.3146 140.063 10.3527 140.164 10.3527C140.266 10.3527 140.379 10.3228 140.504 10.2629C140.634 10.1977 140.793 10.1052 140.981 9.98558C141.168 9.8605 141.383 9.71095 141.623 9.53693C142.283 9.04748 142.724 8.71031 142.945 8.52541L143.544 8.04412C143.954 7.71783 144.245 7.55468 144.418 7.55468C144.592 7.55468 144.734 7.59819 144.845 7.6852C144.955 7.76677 145.011 7.91089 145.011 8.11754C145.011 8.32419 144.917 8.60155 144.729 8.94959C144.541 9.29764 144.337 9.59947 144.115 9.85507C143.898 10.1107 143.687 10.3472 143.479 10.5648C143.272 10.7823 143.027 11.0189 142.743 11.2745C142.464 11.5246 142.153 11.7802 141.811 12.0412C141.469 12.2968 141.108 12.528 140.728 12.7346C139.866 13.2078 139.074 13.4443 138.352 13.4443C137.297 13.4443 136.654 13.1371 136.423 12.5225C136.351 12.3376 136.315 12.131 136.315 11.9026C136.315 11.6742 136.353 11.4294 136.43 11.1684C136.507 10.9019 136.609 10.6382 136.734 10.3771C136.984 9.8605 137.28 9.40369 137.622 9.0067C137.911 8.66409 138.055 8.46015 138.055 8.39489C138.055 8.29156 138.003 8.22631 137.897 8.19911C137.795 8.17192 137.644 8.15833 137.442 8.15833C137.355 8.15833 137.17 8.29972 136.885 8.58251L136.178 9.31668C135.427 10.0889 134.935 10.475 134.704 10.475Z" fill="#7CB124"/>
<path d="M149.965 3.73702C149.826 3.86754 149.674 3.97631 149.51 4.06332C149.346 4.14489 149.163 4.18568 148.961 4.18568C148.759 4.18568 148.564 4.14761 148.376 4.07148C148.188 3.99534 148.025 3.88929 147.885 3.75334C147.582 3.45967 147.43 3.08443 147.43 2.62762C147.43 1.92608 147.95 1.40401 148.99 1.0614C149.342 0.941757 149.631 0.881936 149.857 0.881936C150.083 0.881936 150.252 0.911847 150.362 0.971668C150.478 1.02605 150.572 1.09947 150.644 1.19192C150.788 1.37682 150.861 1.56716 150.861 1.76293C150.861 1.95327 150.839 2.1273 150.796 2.28501C150.757 2.44272 150.699 2.60586 150.622 2.77445C150.545 2.94304 150.451 3.11162 150.341 3.28021C150.23 3.44879 150.105 3.60107 149.965 3.73702ZM148.145 12.7183C147.779 12.9304 147.423 13.099 147.076 13.2241C146.73 13.3546 146.388 13.4198 146.051 13.4198C145.718 13.4198 145.372 13.3301 145.011 13.1507C144.654 12.9657 144.337 12.721 144.057 12.4165C143.436 11.7367 143.126 10.9808 143.126 10.1487C143.126 9.38194 143.328 8.60427 143.732 7.81572C144.103 7.10331 144.575 6.5051 145.148 6.02109C145.721 5.53709 146.253 5.29508 146.744 5.29508C147.447 5.29508 147.823 5.51805 147.871 5.96399C147.885 6.09995 147.892 6.25766 147.892 6.43712C147.892 6.61658 147.854 6.82324 147.777 7.05708C147.705 7.28549 147.608 7.51661 147.488 7.75046C147.372 7.97887 147.242 8.20455 147.098 8.42752C146.958 8.64505 146.823 8.84355 146.693 9.02301C146.443 9.36562 146.243 9.61306 146.094 9.76533C146.094 9.95023 146.217 10.1406 146.462 10.3364C146.693 10.5213 146.888 10.6137 147.047 10.6137C147.211 10.6137 147.401 10.5702 147.618 10.4832C147.839 10.3962 148.066 10.2792 148.297 10.1324C148.533 9.98558 148.771 9.817 149.012 9.62666C149.257 9.43632 149.498 9.24054 149.734 9.03933L151.056 7.87282C151.581 7.4432 152.007 7.22839 152.334 7.22839C152.464 7.22839 152.563 7.28277 152.63 7.39153C152.702 7.49486 152.739 7.61722 152.739 7.75862C152.739 7.90001 152.676 8.09579 152.551 8.34595C152.426 8.59067 152.252 8.86258 152.031 9.16169C151.814 9.46079 151.559 9.77349 151.265 10.0998C150.971 10.4261 150.654 10.7469 150.312 11.0624C149.97 11.3778 149.614 11.6796 149.243 11.9678C148.877 12.2506 148.511 12.5008 148.145 12.7183Z" fill="#7CB124"/>
<path d="M155.649 5.22167C155.697 5.33043 155.721 5.47455 155.721 5.65401C155.721 5.82803 155.642 6.02653 155.483 6.2495C155.608 6.39633 155.767 6.56764 155.96 6.76341C156.157 6.95375 156.347 7.16313 156.53 7.39153C156.973 7.95167 157.195 8.48734 157.195 8.99854C157.195 9.33571 156.99 9.7463 156.581 10.2303C156.456 10.3826 156.318 10.524 156.169 10.6545C156.67 10.437 157.272 10.0046 157.975 9.35746L158.82 8.57436C159.311 8.1121 159.638 7.84563 159.802 7.77493C159.971 7.70423 160.122 7.66888 160.257 7.66888C160.392 7.66888 160.522 7.70695 160.647 7.78309C160.777 7.85922 160.842 7.9843 160.842 8.15833C160.842 8.32691 160.818 8.49278 160.77 8.65593C160.722 8.81364 160.664 8.96047 160.596 9.09643C160.5 9.2922 160.361 9.49342 160.178 9.70007C159.672 10.2385 159.181 10.7333 158.704 11.1847C158.232 11.6307 157.744 12.0141 157.238 12.3349C156.169 13.0093 154.985 13.3464 153.685 13.3464C152.958 13.3464 152.327 13.1371 151.792 12.7183C151.571 12.5443 151.4 12.3648 151.28 12.1799C151.164 11.9896 151.106 11.8427 151.106 11.7394C151.106 11.6307 151.138 11.5192 151.2 11.405C151.263 11.2853 151.347 11.163 151.453 11.0379C151.559 10.9128 151.679 10.7877 151.814 10.6626C151.954 10.5376 152.096 10.4261 152.24 10.3282C152.577 10.1052 152.828 9.99374 152.991 9.99374C153.16 9.99374 153.287 10.0182 153.374 10.0672C153.461 10.1107 153.54 10.1596 153.612 10.214C153.81 10.3663 153.95 10.4424 154.031 10.4424C154.229 10.4424 154.327 10.2901 154.327 9.98558C154.327 9.70279 154.195 9.3629 153.93 8.96591C153.824 8.80276 153.714 8.64233 153.598 8.48462C153.482 8.32691 153.386 8.17192 153.309 8.01965C153.155 8.22087 152.962 8.42752 152.731 8.63961L152.031 9.30852C151.544 9.78165 151.094 10.0073 150.68 9.98558C150.439 9.96383 150.319 9.66201 150.319 9.08011C150.319 8.97679 150.326 8.87618 150.341 8.77829C150.365 8.6097 150.512 8.40577 150.781 8.16649C151.051 7.9272 151.246 7.76405 151.366 7.67704C151.491 7.58459 151.597 7.50302 151.684 7.43232L152.45 6.84499C152.45 6.29029 152.734 5.78181 153.302 5.31956C153.841 4.8845 154.376 4.66697 154.905 4.66697C155.242 4.66697 155.49 4.85187 155.649 5.22167Z" fill="#7CB124"/>
<path d="M169.653 7.17128C169.884 7.17128 170 7.31812 170 7.61178C170 7.80756 169.94 8.055 169.819 8.3541C169.704 8.64777 169.535 8.92512 169.314 9.18616C169.092 9.44176 168.837 9.70823 168.548 9.98558C168.264 10.2629 167.93 10.5539 167.544 10.8584C167.164 11.163 166.743 11.4648 166.28 11.7639C165.818 12.063 165.327 12.3322 164.807 12.5715C163.656 13.1044 162.542 13.3709 161.463 13.3709C160.64 13.3709 159.92 13.1289 159.304 12.6449C158.658 12.1391 158.336 11.5246 158.336 10.8013C158.336 9.66473 158.878 8.58523 159.961 7.56284C160.895 6.68184 161.995 5.99934 163.262 5.51533C164.032 5.22167 164.684 5.07483 165.219 5.07483C165.652 5.07483 166.018 5.19448 166.317 5.43376C166.634 5.6948 166.793 6.04556 166.793 6.48606C166.793 7.17672 166.309 7.9408 165.342 8.77829C165.187 8.91425 165.048 9.02845 164.923 9.1209L164.663 9.31668C164.181 9.69736 163.449 10.1243 162.467 10.5974C162.77 10.7768 163.052 10.8666 163.312 10.8666C163.577 10.8666 163.813 10.8312 164.02 10.7605C164.232 10.6898 164.47 10.5892 164.735 10.4587C165 10.3282 165.281 10.1732 165.58 9.99374C165.883 9.80884 166.189 9.60762 166.497 9.39009C167.186 8.90609 167.783 8.41121 168.288 7.90545C168.553 7.6281 168.89 7.40785 169.299 7.2447C169.434 7.19576 169.552 7.17128 169.653 7.17128ZM161.687 9.46351L162.084 9.2351C162.214 9.15897 162.33 9.08827 162.431 9.02301C163.404 8.39217 163.957 8.00334 164.092 7.8565C164.227 7.70967 164.294 7.60906 164.294 7.55468C164.294 7.49486 164.28 7.42688 164.251 7.35075C164.222 7.27461 164.184 7.20663 164.135 7.14681C164.02 6.99454 163.897 6.9184 163.767 6.9184C163.637 6.9184 163.493 6.9456 163.334 6.99998C163.18 7.05436 163.023 7.1305 162.864 7.22839C162.705 7.32084 162.551 7.43504 162.402 7.571C162.258 7.70151 162.13 7.84291 162.019 7.99518C161.764 8.33779 161.637 8.63418 161.637 8.88434C161.637 9.1345 161.653 9.32755 161.687 9.46351Z" fill="#7CB124"/>
</svg>
